<mxfile host="app.diagrams.net" modified="2021-03-14T07:36:54.510Z" agent="5.0 (Macintosh; Intel Mac OS X 10_15_7) AppleWebKit/537.36 (KHTML, like Gecko) Chrome/88.0.4324.182 Safari/537.36" etag="zApVuXN-R-l1T8-7ukz-" version="14.4.2" type="github" pages="2">
  <diagram id="C5RBs43oDa-KdzZeNtuy" name="画面遷移図">
    <mxGraphModel dx="1243" dy="631" grid="1" gridSize="10" guides="1" tooltips="1" connect="1" arrows="1" fold="1" page="1" pageScale="1" pageWidth="1654" pageHeight="1169" math="0" shadow="0">
      <root>
        <mxCell id="WIyWlLk6GJQsqaUBKTNV-0" />
        <mxCell id="WIyWlLk6GJQsqaUBKTNV-1" parent="WIyWlLk6GJQsqaUBKTNV-0" />
        <mxCell id="BrCqYyokKNF17bQJozhL-0" value="" style="shape=table;html=1;whiteSpace=wrap;startSize=0;container=1;collapsible=0;childLayout=tableLayout;" vertex="1" parent="WIyWlLk6GJQsqaUBKTNV-1">
          <mxGeometry x="1115" y="524.25" width="190" height="30.5" as="geometry" />
        </mxCell>
        <mxCell id="BrCqYyokKNF17bQJozhL-1" value="" style="shape=partialRectangle;html=1;whiteSpace=wrap;collapsible=0;dropTarget=0;pointerEvents=0;fillColor=none;top=0;left=0;bottom=0;right=0;points=[[0,0.5],[1,0.5]];portConstraint=eastwest;" vertex="1" parent="BrCqYyokKNF17bQJozhL-0">
          <mxGeometry width="190" height="31" as="geometry" />
        </mxCell>
        <mxCell id="BrCqYyokKNF17bQJozhL-2" value="" style="shape=partialRectangle;html=1;whiteSpace=wrap;connectable=0;overflow=hidden;fillColor=none;top=0;left=0;bottom=0;right=0;" vertex="1" parent="BrCqYyokKNF17bQJozhL-1">
          <mxGeometry width="190" height="31" as="geometry" />
        </mxCell>
        <mxCell id="aL4d4vG_SEdJMuqijJNs-0" value="" style="edgeStyle=orthogonalEdgeStyle;orthogonalLoop=1;jettySize=auto;html=1;curved=1;" parent="WIyWlLk6GJQsqaUBKTNV-1" source="aL4d4vG_SEdJMuqijJNs-1" target="aL4d4vG_SEdJMuqijJNs-9" edge="1">
          <mxGeometry relative="1" as="geometry">
            <Array as="points">
              <mxPoint x="500" y="450" />
              <mxPoint x="500" y="690" />
              <mxPoint x="590" y="690" />
            </Array>
          </mxGeometry>
        </mxCell>
        <mxCell id="aL4d4vG_SEdJMuqijJNs-1" value="" style="shape=table;html=1;whiteSpace=wrap;startSize=0;container=1;collapsible=0;childLayout=tableLayout;" parent="WIyWlLk6GJQsqaUBKTNV-1" vertex="1">
          <mxGeometry x="170" y="390" width="310" height="90" as="geometry" />
        </mxCell>
        <mxCell id="aL4d4vG_SEdJMuqijJNs-2" value="" style="shape=partialRectangle;html=1;whiteSpace=wrap;collapsible=0;dropTarget=0;pointerEvents=0;fillColor=none;top=0;left=0;bottom=0;right=0;points=[[0,0.5],[1,0.5]];portConstraint=eastwest;" parent="aL4d4vG_SEdJMuqijJNs-1" vertex="1">
          <mxGeometry width="310" height="30" as="geometry" />
        </mxCell>
        <mxCell id="aL4d4vG_SEdJMuqijJNs-3" value="&lt;span style=&quot;font-style: italic&quot;&gt;ログイン画面&lt;/span&gt;" style="shape=partialRectangle;html=1;whiteSpace=wrap;connectable=0;overflow=hidden;fillColor=#dae8fc;top=0;left=0;bottom=0;right=0;strokeColor=#6c8ebf;" parent="aL4d4vG_SEdJMuqijJNs-2" vertex="1">
          <mxGeometry width="310" height="30" as="geometry" />
        </mxCell>
        <mxCell id="aL4d4vG_SEdJMuqijJNs-4" value="" style="shape=partialRectangle;html=1;whiteSpace=wrap;collapsible=0;dropTarget=0;pointerEvents=0;fillColor=none;top=0;left=0;bottom=0;right=0;points=[[0,0.5],[1,0.5]];portConstraint=eastwest;" parent="aL4d4vG_SEdJMuqijJNs-1" vertex="1">
          <mxGeometry y="30" width="310" height="30" as="geometry" />
        </mxCell>
        <mxCell id="aL4d4vG_SEdJMuqijJNs-5" value="&lt;span style=&quot;text-align: left&quot;&gt;正しいメールアドレスとパスワードでログインする。&lt;/span&gt;" style="shape=partialRectangle;html=1;whiteSpace=wrap;connectable=0;overflow=hidden;fillColor=none;top=0;left=0;bottom=0;right=0;" parent="aL4d4vG_SEdJMuqijJNs-4" vertex="1">
          <mxGeometry width="310" height="30" as="geometry" />
        </mxCell>
        <mxCell id="aL4d4vG_SEdJMuqijJNs-6" value="" style="shape=partialRectangle;html=1;whiteSpace=wrap;collapsible=0;dropTarget=0;pointerEvents=0;fillColor=none;top=0;left=0;bottom=0;right=0;points=[[0,0.5],[1,0.5]];portConstraint=eastwest;" parent="aL4d4vG_SEdJMuqijJNs-1" vertex="1">
          <mxGeometry y="60" width="310" height="30" as="geometry" />
        </mxCell>
        <mxCell id="aL4d4vG_SEdJMuqijJNs-7" value="&lt;span style=&quot;text-align: left&quot;&gt;間違ったメールアドレスとパスワードでログインする。&lt;/span&gt;" style="shape=partialRectangle;html=1;whiteSpace=wrap;connectable=0;overflow=hidden;fillColor=none;top=0;left=0;bottom=0;right=0;" parent="aL4d4vG_SEdJMuqijJNs-6" vertex="1">
          <mxGeometry width="310" height="30" as="geometry" />
        </mxCell>
        <mxCell id="aL4d4vG_SEdJMuqijJNs-8" style="edgeStyle=orthogonalEdgeStyle;orthogonalLoop=1;jettySize=auto;html=1;exitX=1;exitY=0.5;exitDx=0;exitDy=0;entryX=0.461;entryY=1.167;entryDx=0;entryDy=0;entryPerimeter=0;curved=1;" parent="aL4d4vG_SEdJMuqijJNs-1" source="aL4d4vG_SEdJMuqijJNs-6" target="aL4d4vG_SEdJMuqijJNs-6" edge="1">
          <mxGeometry relative="1" as="geometry">
            <mxPoint x="380" y="210" as="targetPoint" />
            <Array as="points">
              <mxPoint x="340" y="75" />
              <mxPoint x="340" y="120" />
              <mxPoint x="143" y="120" />
            </Array>
          </mxGeometry>
        </mxCell>
        <mxCell id="aL4d4vG_SEdJMuqijJNs-9" value="" style="shape=table;html=1;whiteSpace=wrap;startSize=0;container=1;collapsible=0;childLayout=tableLayout;" parent="WIyWlLk6GJQsqaUBKTNV-1" vertex="1">
          <mxGeometry x="460" y="665" width="260" height="110" as="geometry" />
        </mxCell>
        <mxCell id="aL4d4vG_SEdJMuqijJNs-10" value="" style="shape=partialRectangle;html=1;whiteSpace=wrap;collapsible=0;dropTarget=0;pointerEvents=0;fillColor=none;top=0;left=0;bottom=0;right=0;points=[[0,0.5],[1,0.5]];portConstraint=eastwest;" parent="aL4d4vG_SEdJMuqijJNs-9" vertex="1">
          <mxGeometry width="260" height="44" as="geometry" />
        </mxCell>
        <mxCell id="aL4d4vG_SEdJMuqijJNs-11" value="&lt;span&gt;新規提案・プロジェクト一覧&lt;/span&gt;" style="shape=partialRectangle;html=1;whiteSpace=wrap;connectable=0;overflow=hidden;fillColor=#dae8fc;top=0;left=0;bottom=0;right=0;fontStyle=0;strokeColor=#6c8ebf;" parent="aL4d4vG_SEdJMuqijJNs-10" vertex="1">
          <mxGeometry width="260" height="44" as="geometry" />
        </mxCell>
        <mxCell id="aL4d4vG_SEdJMuqijJNs-12" value="" style="shape=partialRectangle;html=1;whiteSpace=wrap;collapsible=0;dropTarget=0;pointerEvents=0;fillColor=none;top=0;left=0;bottom=0;right=0;points=[[0,0.5],[1,0.5]];portConstraint=eastwest;" parent="aL4d4vG_SEdJMuqijJNs-9" vertex="1">
          <mxGeometry y="44" width="260" height="33" as="geometry" />
        </mxCell>
        <mxCell id="aL4d4vG_SEdJMuqijJNs-13" value="&lt;div style=&quot;text-align: left&quot;&gt;&lt;span&gt;タイトルをクリック&lt;/span&gt;&lt;/div&gt;" style="shape=partialRectangle;html=1;whiteSpace=wrap;connectable=0;overflow=hidden;fillColor=none;top=0;left=0;bottom=0;right=0;" parent="aL4d4vG_SEdJMuqijJNs-12" vertex="1">
          <mxGeometry width="260" height="33" as="geometry" />
        </mxCell>
        <mxCell id="aL4d4vG_SEdJMuqijJNs-14" value="" style="shape=partialRectangle;html=1;whiteSpace=wrap;collapsible=0;dropTarget=0;pointerEvents=0;fillColor=none;top=0;left=0;bottom=0;right=0;points=[[0,0.5],[1,0.5]];portConstraint=eastwest;" parent="aL4d4vG_SEdJMuqijJNs-9" vertex="1">
          <mxGeometry y="77" width="260" height="33" as="geometry" />
        </mxCell>
        <mxCell id="aL4d4vG_SEdJMuqijJNs-15" value="&lt;div style=&quot;text-align: left&quot;&gt;&lt;span&gt;タグを選択する&lt;/span&gt;&lt;/div&gt;" style="shape=partialRectangle;html=1;whiteSpace=wrap;connectable=0;overflow=hidden;fillColor=none;top=0;left=0;bottom=0;right=0;" parent="aL4d4vG_SEdJMuqijJNs-14" vertex="1">
          <mxGeometry width="260" height="33" as="geometry" />
        </mxCell>
        <mxCell id="aL4d4vG_SEdJMuqijJNs-16" value="" style="shape=table;html=1;whiteSpace=wrap;startSize=0;container=1;collapsible=0;childLayout=tableLayout;" parent="WIyWlLk6GJQsqaUBKTNV-1" vertex="1">
          <mxGeometry x="760" y="700" width="160" height="190" as="geometry" />
        </mxCell>
        <mxCell id="aL4d4vG_SEdJMuqijJNs-17" value="" style="shape=partialRectangle;html=1;whiteSpace=wrap;collapsible=0;dropTarget=0;pointerEvents=0;fillColor=none;top=0;left=0;bottom=0;right=0;points=[[0,0.5],[1,0.5]];portConstraint=eastwest;" parent="aL4d4vG_SEdJMuqijJNs-16" vertex="1">
          <mxGeometry width="160" height="30" as="geometry" />
        </mxCell>
        <mxCell id="aL4d4vG_SEdJMuqijJNs-18" value="&lt;span style=&quot;font-family: &amp;#34;roboto&amp;#34; , &amp;#34;robotodraft&amp;#34; , &amp;#34;helvetica&amp;#34; , &amp;#34;arial&amp;#34; , sans-serif ; font-size: 13px ; background-color: rgb(255 , 255 , 255)&quot;&gt;詳細画面&lt;/span&gt;" style="shape=partialRectangle;html=1;whiteSpace=wrap;connectable=0;overflow=hidden;fillColor=#dae8fc;top=0;left=0;bottom=0;right=0;strokeColor=#6c8ebf;" parent="aL4d4vG_SEdJMuqijJNs-17" vertex="1">
          <mxGeometry width="160" height="30" as="geometry" />
        </mxCell>
        <mxCell id="aL4d4vG_SEdJMuqijJNs-19" value="" style="shape=partialRectangle;html=1;whiteSpace=wrap;collapsible=0;dropTarget=0;pointerEvents=0;fillColor=none;top=0;left=0;bottom=0;right=0;points=[[0,0.5],[1,0.5]];portConstraint=eastwest;" parent="aL4d4vG_SEdJMuqijJNs-16" vertex="1">
          <mxGeometry y="30" width="160" height="30" as="geometry" />
        </mxCell>
        <mxCell id="aL4d4vG_SEdJMuqijJNs-20" value="企業名をクリックする" style="shape=partialRectangle;html=1;whiteSpace=wrap;connectable=0;overflow=hidden;fillColor=none;top=0;left=0;bottom=0;right=0;" parent="aL4d4vG_SEdJMuqijJNs-19" vertex="1">
          <mxGeometry width="160" height="30" as="geometry" />
        </mxCell>
        <mxCell id="9sWYosas5AgW0Uu0xi2V-0" style="shape=partialRectangle;html=1;whiteSpace=wrap;collapsible=0;dropTarget=0;pointerEvents=0;fillColor=none;top=0;left=0;bottom=0;right=0;points=[[0,0.5],[1,0.5]];portConstraint=eastwest;" parent="aL4d4vG_SEdJMuqijJNs-16" vertex="1">
          <mxGeometry y="60" width="160" height="30" as="geometry" />
        </mxCell>
        <mxCell id="9sWYosas5AgW0Uu0xi2V-1" value="参加するをクリックする" style="shape=partialRectangle;html=1;whiteSpace=wrap;connectable=0;overflow=hidden;fillColor=none;top=0;left=0;bottom=0;right=0;" parent="9sWYosas5AgW0Uu0xi2V-0" vertex="1">
          <mxGeometry width="160" height="30" as="geometry" />
        </mxCell>
        <mxCell id="aL4d4vG_SEdJMuqijJNs-135" style="shape=partialRectangle;html=1;whiteSpace=wrap;collapsible=0;dropTarget=0;pointerEvents=0;fillColor=none;top=0;left=0;bottom=0;right=0;points=[[0,0.5],[1,0.5]];portConstraint=eastwest;" parent="aL4d4vG_SEdJMuqijJNs-16" vertex="1">
          <mxGeometry y="90" width="160" height="30" as="geometry" />
        </mxCell>
        <mxCell id="aL4d4vG_SEdJMuqijJNs-136" value="コメント画面" style="shape=partialRectangle;html=1;whiteSpace=wrap;connectable=0;overflow=hidden;fillColor=#dae8fc;top=0;left=0;bottom=0;right=0;strokeColor=#6c8ebf;" parent="aL4d4vG_SEdJMuqijJNs-135" vertex="1">
          <mxGeometry width="160" height="30" as="geometry" />
        </mxCell>
        <mxCell id="aL4d4vG_SEdJMuqijJNs-121" style="shape=partialRectangle;html=1;whiteSpace=wrap;collapsible=0;dropTarget=0;pointerEvents=0;fillColor=none;top=0;left=0;bottom=0;right=0;points=[[0,0.5],[1,0.5]];portConstraint=eastwest;" parent="aL4d4vG_SEdJMuqijJNs-16" vertex="1">
          <mxGeometry y="120" width="160" height="40" as="geometry" />
        </mxCell>
        <mxCell id="aL4d4vG_SEdJMuqijJNs-122" value="&lt;span style=&quot;color: rgb(0 , 0 , 0) ; font-style: normal ; font-weight: 400 ; letter-spacing: normal ; text-align: center ; text-indent: 0px ; text-transform: none ; word-spacing: 0px ; font-family: &amp;#34;roboto&amp;#34; , &amp;#34;robotodraft&amp;#34; , &amp;#34;helvetica&amp;#34; , &amp;#34;arial&amp;#34; , sans-serif ; font-size: 13px ; background-color: rgb(255 , 255 , 255)&quot;&gt;コメントを入力し送信&lt;/span&gt;&lt;span style=&quot;color: rgb(0 , 0 , 0) ; font-style: normal ; font-weight: 400 ; letter-spacing: normal ; text-align: center ; text-indent: 0px ; text-transform: none ; word-spacing: 0px ; font-family: &amp;#34;roboto&amp;#34; , &amp;#34;robotodraft&amp;#34; , &amp;#34;helvetica&amp;#34; , &amp;#34;arial&amp;#34; , sans-serif ; font-size: 13px ; background-color: rgb(255 , 255 , 255)&quot;&gt;ボタンを押す&lt;/span&gt;" style="shape=partialRectangle;html=1;whiteSpace=wrap;connectable=0;overflow=hidden;fillColor=none;top=0;left=0;bottom=0;right=0;" parent="aL4d4vG_SEdJMuqijJNs-121" vertex="1">
          <mxGeometry width="160" height="40" as="geometry" />
        </mxCell>
        <mxCell id="aL4d4vG_SEdJMuqijJNs-127" style="shape=partialRectangle;html=1;whiteSpace=wrap;collapsible=0;dropTarget=0;pointerEvents=0;fillColor=none;top=0;left=0;bottom=0;right=0;points=[[0,0.5],[1,0.5]];portConstraint=eastwest;" parent="aL4d4vG_SEdJMuqijJNs-16" vertex="1">
          <mxGeometry y="160" width="160" height="30" as="geometry" />
        </mxCell>
        <mxCell id="aL4d4vG_SEdJMuqijJNs-128" value="もっと見るをクリックする" style="shape=partialRectangle;html=1;whiteSpace=wrap;connectable=0;overflow=hidden;fillColor=none;top=0;left=0;bottom=0;right=0;" parent="aL4d4vG_SEdJMuqijJNs-127" vertex="1">
          <mxGeometry width="160" height="30" as="geometry" />
        </mxCell>
        <mxCell id="aL4d4vG_SEdJMuqijJNs-31" value="" style="shape=table;html=1;whiteSpace=wrap;startSize=0;container=1;collapsible=0;childLayout=tableLayout;fillColor=#fff2cc;strokeColor=#d6b656;" parent="WIyWlLk6GJQsqaUBKTNV-1" vertex="1">
          <mxGeometry x="970" y="810" width="240" height="30" as="geometry" />
        </mxCell>
        <mxCell id="aL4d4vG_SEdJMuqijJNs-32" value="" style="shape=partialRectangle;html=1;whiteSpace=wrap;collapsible=0;dropTarget=0;pointerEvents=0;fillColor=none;top=0;left=0;bottom=0;right=0;points=[[0,0.5],[1,0.5]];portConstraint=eastwest;" parent="aL4d4vG_SEdJMuqijJNs-31" vertex="1">
          <mxGeometry width="240" height="30" as="geometry" />
        </mxCell>
        <mxCell id="aL4d4vG_SEdJMuqijJNs-33" value="&lt;span style=&quot;font-family: &amp;#34;roboto&amp;#34; , &amp;#34;robotodraft&amp;#34; , &amp;#34;helvetica&amp;#34; , &amp;#34;arial&amp;#34; , sans-serif ; font-size: 13px ; background-color: rgb(255 , 242 , 204)&quot;&gt;詳細画面にコメントが表示される&lt;/span&gt;" style="shape=partialRectangle;html=1;whiteSpace=wrap;connectable=0;overflow=hidden;fillColor=none;top=0;left=0;bottom=0;right=0;" parent="aL4d4vG_SEdJMuqijJNs-32" vertex="1">
          <mxGeometry width="240" height="30" as="geometry" />
        </mxCell>
        <mxCell id="aL4d4vG_SEdJMuqijJNs-34" value="" style="shape=table;html=1;whiteSpace=wrap;startSize=0;container=1;collapsible=0;childLayout=tableLayout;" parent="WIyWlLk6GJQsqaUBKTNV-1" vertex="1">
          <mxGeometry x="540" y="250" width="220" height="150" as="geometry" />
        </mxCell>
        <mxCell id="aL4d4vG_SEdJMuqijJNs-35" value="" style="shape=partialRectangle;html=1;whiteSpace=wrap;collapsible=0;dropTarget=0;pointerEvents=0;fillColor=none;top=0;left=0;bottom=0;right=0;points=[[0,0.5],[1,0.5]];portConstraint=eastwest;" parent="aL4d4vG_SEdJMuqijJNs-34" vertex="1">
          <mxGeometry width="220" height="27" as="geometry" />
        </mxCell>
        <mxCell id="aL4d4vG_SEdJMuqijJNs-36" value="ヘッダーリンク(ログイン時)" style="shape=partialRectangle;html=1;whiteSpace=wrap;connectable=0;overflow=hidden;fillColor=#dae8fc;top=0;left=0;bottom=0;right=0;strokeColor=#6c8ebf;" parent="aL4d4vG_SEdJMuqijJNs-35" vertex="1">
          <mxGeometry width="220" height="27" as="geometry" />
        </mxCell>
        <mxCell id="aL4d4vG_SEdJMuqijJNs-37" value="" style="shape=partialRectangle;html=1;whiteSpace=wrap;collapsible=0;dropTarget=0;pointerEvents=0;fillColor=none;top=0;left=0;bottom=0;right=0;points=[[0,0.5],[1,0.5]];portConstraint=eastwest;" parent="aL4d4vG_SEdJMuqijJNs-34" vertex="1">
          <mxGeometry y="27" width="220" height="27" as="geometry" />
        </mxCell>
        <mxCell id="aL4d4vG_SEdJMuqijJNs-38" value="&lt;span style=&quot;font-family: &amp;#34;roboto&amp;#34; , &amp;#34;robotodraft&amp;#34; , &amp;#34;helvetica&amp;#34; , &amp;#34;arial&amp;#34; , sans-serif ; font-size: 13px ; background-color: rgb(255 , 255 , 255)&quot;&gt;プロジェクト新規投稿&lt;/span&gt;" style="shape=partialRectangle;html=1;whiteSpace=wrap;connectable=0;overflow=hidden;fillColor=none;top=0;left=0;bottom=0;right=0;" parent="aL4d4vG_SEdJMuqijJNs-37" vertex="1">
          <mxGeometry width="220" height="27" as="geometry" />
        </mxCell>
        <mxCell id="aL4d4vG_SEdJMuqijJNs-39" value="" style="shape=partialRectangle;html=1;whiteSpace=wrap;collapsible=0;dropTarget=0;pointerEvents=0;fillColor=none;top=0;left=0;bottom=0;right=0;points=[[0,0.5],[1,0.5]];portConstraint=eastwest;" parent="aL4d4vG_SEdJMuqijJNs-34" vertex="1">
          <mxGeometry y="54" width="220" height="27" as="geometry" />
        </mxCell>
        <mxCell id="aL4d4vG_SEdJMuqijJNs-40" value="&lt;span style=&quot;font-family: &amp;#34;roboto&amp;#34; , &amp;#34;robotodraft&amp;#34; , &amp;#34;helvetica&amp;#34; , &amp;#34;arial&amp;#34; , sans-serif ; font-size: 13px ; background-color: rgb(255 , 255 , 255)&quot;&gt;お問い合わせ&lt;/span&gt;" style="shape=partialRectangle;html=1;whiteSpace=wrap;connectable=0;overflow=hidden;fillColor=none;top=0;left=0;bottom=0;right=0;" parent="aL4d4vG_SEdJMuqijJNs-39" vertex="1">
          <mxGeometry width="220" height="27" as="geometry" />
        </mxCell>
        <mxCell id="aL4d4vG_SEdJMuqijJNs-41" style="shape=partialRectangle;html=1;whiteSpace=wrap;collapsible=0;dropTarget=0;pointerEvents=0;fillColor=none;top=0;left=0;bottom=0;right=0;points=[[0,0.5],[1,0.5]];portConstraint=eastwest;" parent="aL4d4vG_SEdJMuqijJNs-34" vertex="1">
          <mxGeometry y="81" width="220" height="26" as="geometry" />
        </mxCell>
        <mxCell id="aL4d4vG_SEdJMuqijJNs-42" value="&lt;span style=&quot;font-family: &amp;#34;roboto&amp;#34; , &amp;#34;robotodraft&amp;#34; , &amp;#34;helvetica&amp;#34; , &amp;#34;arial&amp;#34; , sans-serif ; font-size: 13px ; background-color: rgb(255 , 255 , 255)&quot;&gt;ログアウト&lt;/span&gt;" style="shape=partialRectangle;html=1;whiteSpace=wrap;connectable=0;overflow=hidden;fillColor=none;top=0;left=0;bottom=0;right=0;" parent="aL4d4vG_SEdJMuqijJNs-41" vertex="1">
          <mxGeometry width="220" height="26" as="geometry" />
        </mxCell>
        <mxCell id="aL4d4vG_SEdJMuqijJNs-43" style="shape=partialRectangle;html=1;whiteSpace=wrap;collapsible=0;dropTarget=0;pointerEvents=0;fillColor=none;top=0;left=0;bottom=0;right=0;points=[[0,0.5],[1,0.5]];portConstraint=eastwest;" parent="aL4d4vG_SEdJMuqijJNs-34" vertex="1">
          <mxGeometry y="107" width="220" height="43" as="geometry" />
        </mxCell>
        <mxCell id="aL4d4vG_SEdJMuqijJNs-44" value="&lt;span style=&quot;font-family: &amp;#34;roboto&amp;#34; , &amp;#34;robotodraft&amp;#34; , &amp;#34;helvetica&amp;#34; , &amp;#34;arial&amp;#34; , sans-serif ; font-size: 13px ; background-color: rgb(255 , 255 , 255)&quot;&gt;現在関与しているプロジェクト一覧&lt;/span&gt;&lt;span style=&quot;font-family: &amp;#34;roboto&amp;#34; , &amp;#34;robotodraft&amp;#34; , &amp;#34;helvetica&amp;#34; , &amp;#34;arial&amp;#34; , sans-serif ; font-size: 13px ; background-color: rgb(255 , 255 , 255)&quot;&gt;&lt;br&gt;&lt;/span&gt;" style="shape=partialRectangle;html=1;whiteSpace=wrap;connectable=0;overflow=hidden;fillColor=none;top=0;left=0;bottom=0;right=0;strokeWidth=4;" parent="aL4d4vG_SEdJMuqijJNs-43" vertex="1">
          <mxGeometry width="220" height="43" as="geometry" />
        </mxCell>
        <mxCell id="aL4d4vG_SEdJMuqijJNs-45" value="" style="shape=table;html=1;whiteSpace=wrap;startSize=0;container=1;collapsible=0;childLayout=tableLayout;" parent="WIyWlLk6GJQsqaUBKTNV-1" vertex="1">
          <mxGeometry x="790" y="250" width="230" height="83" as="geometry" />
        </mxCell>
        <mxCell id="aL4d4vG_SEdJMuqijJNs-46" value="" style="shape=partialRectangle;html=1;whiteSpace=wrap;collapsible=0;dropTarget=0;pointerEvents=0;fillColor=none;top=0;left=0;bottom=0;right=0;points=[[0,0.5],[1,0.5]];portConstraint=eastwest;" parent="aL4d4vG_SEdJMuqijJNs-45" vertex="1">
          <mxGeometry width="230" height="31" as="geometry" />
        </mxCell>
        <mxCell id="aL4d4vG_SEdJMuqijJNs-47" value="&lt;span style=&quot;font-family: &amp;#34;roboto&amp;#34; , &amp;#34;robotodraft&amp;#34; , &amp;#34;helvetica&amp;#34; , &amp;#34;arial&amp;#34; , sans-serif ; font-size: 13px ; background-color: rgb(255 , 255 , 255)&quot;&gt;新規投稿画面&lt;/span&gt;" style="shape=partialRectangle;html=1;whiteSpace=wrap;connectable=0;overflow=hidden;fillColor=#dae8fc;top=0;left=0;bottom=0;right=0;strokeColor=#6c8ebf;" parent="aL4d4vG_SEdJMuqijJNs-46" vertex="1">
          <mxGeometry width="230" height="31" as="geometry" />
        </mxCell>
        <mxCell id="aL4d4vG_SEdJMuqijJNs-48" value="" style="shape=partialRectangle;html=1;whiteSpace=wrap;collapsible=0;dropTarget=0;pointerEvents=0;fillColor=none;top=0;left=0;bottom=0;right=0;points=[[0,0.5],[1,0.5]];portConstraint=eastwest;" parent="aL4d4vG_SEdJMuqijJNs-45" vertex="1">
          <mxGeometry y="31" width="230" height="26" as="geometry" />
        </mxCell>
        <mxCell id="aL4d4vG_SEdJMuqijJNs-49" value="&lt;span style=&quot;font-family: &amp;#34;roboto&amp;#34; , &amp;#34;robotodraft&amp;#34; , &amp;#34;helvetica&amp;#34; , &amp;#34;arial&amp;#34; , sans-serif ; font-size: 13px ; background-color: rgb(255 , 255 , 255)&quot;&gt;正しい情報を入力し送信ボタンを押す&lt;/span&gt;" style="shape=partialRectangle;html=1;whiteSpace=wrap;connectable=0;overflow=hidden;fillColor=none;top=0;left=0;bottom=0;right=0;" parent="aL4d4vG_SEdJMuqijJNs-48" vertex="1">
          <mxGeometry width="230" height="26" as="geometry" />
        </mxCell>
        <mxCell id="aL4d4vG_SEdJMuqijJNs-50" style="shape=partialRectangle;html=1;whiteSpace=wrap;collapsible=0;dropTarget=0;pointerEvents=0;fillColor=none;top=0;left=0;bottom=0;right=0;points=[[0,0.5],[1,0.5]];portConstraint=eastwest;" parent="aL4d4vG_SEdJMuqijJNs-45" vertex="1">
          <mxGeometry y="57" width="230" height="26" as="geometry" />
        </mxCell>
        <mxCell id="aL4d4vG_SEdJMuqijJNs-51" value="&lt;span style=&quot;font-family: &amp;#34;roboto&amp;#34; , &amp;#34;robotodraft&amp;#34; , &amp;#34;helvetica&amp;#34; , &amp;#34;arial&amp;#34; , sans-serif ; font-size: 13px ; background-color: rgb(255 , 255 , 255)&quot;&gt;不正な情報を入力し送信ボタンを押す&lt;/span&gt;" style="shape=partialRectangle;html=1;whiteSpace=wrap;connectable=0;overflow=hidden;fillColor=none;top=0;left=0;bottom=0;right=0;" parent="aL4d4vG_SEdJMuqijJNs-50" vertex="1">
          <mxGeometry width="230" height="26" as="geometry" />
        </mxCell>
        <mxCell id="aL4d4vG_SEdJMuqijJNs-52" value="" style="shape=table;html=1;whiteSpace=wrap;startSize=0;container=1;collapsible=0;childLayout=tableLayout;fillColor=#fff2cc;strokeColor=#d6b656;" parent="WIyWlLk6GJQsqaUBKTNV-1" vertex="1">
          <mxGeometry x="1080" y="276.5" width="130" height="30" as="geometry" />
        </mxCell>
        <mxCell id="aL4d4vG_SEdJMuqijJNs-53" value="" style="shape=partialRectangle;html=1;whiteSpace=wrap;collapsible=0;dropTarget=0;pointerEvents=0;fillColor=none;top=0;left=0;bottom=0;right=0;points=[[0,0.5],[1,0.5]];portConstraint=eastwest;" parent="aL4d4vG_SEdJMuqijJNs-52" vertex="1">
          <mxGeometry width="130" height="30" as="geometry" />
        </mxCell>
        <mxCell id="aL4d4vG_SEdJMuqijJNs-54" value="&lt;span style=&quot;font-family: &amp;#34;roboto&amp;#34; , &amp;#34;robotodraft&amp;#34; , &amp;#34;helvetica&amp;#34; , &amp;#34;arial&amp;#34; , sans-serif ; font-size: 13px ; background-color: rgb(255 , 242 , 204)&quot;&gt;一覧画面へ遷移&lt;/span&gt;" style="shape=partialRectangle;html=1;whiteSpace=wrap;connectable=0;overflow=hidden;fillColor=none;top=0;left=0;bottom=0;right=0;" parent="aL4d4vG_SEdJMuqijJNs-53" vertex="1">
          <mxGeometry width="130" height="30" as="geometry" />
        </mxCell>
        <mxCell id="aL4d4vG_SEdJMuqijJNs-55" value="" style="shape=table;html=1;whiteSpace=wrap;startSize=0;container=1;collapsible=0;childLayout=tableLayout;" parent="WIyWlLk6GJQsqaUBKTNV-1" vertex="1">
          <mxGeometry x="790" y="350" width="230" height="83" as="geometry" />
        </mxCell>
        <mxCell id="aL4d4vG_SEdJMuqijJNs-56" value="" style="shape=partialRectangle;html=1;whiteSpace=wrap;collapsible=0;dropTarget=0;pointerEvents=0;fillColor=none;top=0;left=0;bottom=0;right=0;points=[[0,0.5],[1,0.5]];portConstraint=eastwest;" parent="aL4d4vG_SEdJMuqijJNs-55" vertex="1">
          <mxGeometry width="230" height="31" as="geometry" />
        </mxCell>
        <mxCell id="aL4d4vG_SEdJMuqijJNs-57" value="&lt;span style=&quot;font-family: &amp;#34;roboto&amp;#34; , &amp;#34;robotodraft&amp;#34; , &amp;#34;helvetica&amp;#34; , &amp;#34;arial&amp;#34; , sans-serif ; font-size: 13px ; background-color: rgb(255 , 255 , 255)&quot;&gt;お問い合わせ入力フォーム&lt;/span&gt;" style="shape=partialRectangle;html=1;whiteSpace=wrap;connectable=0;overflow=hidden;fillColor=#dae8fc;top=0;left=0;bottom=0;right=0;strokeColor=#6c8ebf;" parent="aL4d4vG_SEdJMuqijJNs-56" vertex="1">
          <mxGeometry width="230" height="31" as="geometry" />
        </mxCell>
        <mxCell id="aL4d4vG_SEdJMuqijJNs-58" value="" style="shape=partialRectangle;html=1;whiteSpace=wrap;collapsible=0;dropTarget=0;pointerEvents=0;fillColor=none;top=0;left=0;bottom=0;right=0;points=[[0,0.5],[1,0.5]];portConstraint=eastwest;" parent="aL4d4vG_SEdJMuqijJNs-55" vertex="1">
          <mxGeometry y="31" width="230" height="26" as="geometry" />
        </mxCell>
        <mxCell id="aL4d4vG_SEdJMuqijJNs-59" value="&lt;span style=&quot;font-family: &amp;#34;roboto&amp;#34; , &amp;#34;robotodraft&amp;#34; , &amp;#34;helvetica&amp;#34; , &amp;#34;arial&amp;#34; , sans-serif ; font-size: 13px ; background-color: rgb(255 , 255 , 255)&quot;&gt;正しい情報を入力し送信ボタンを押す&lt;/span&gt;" style="shape=partialRectangle;html=1;whiteSpace=wrap;connectable=0;overflow=hidden;fillColor=none;top=0;left=0;bottom=0;right=0;" parent="aL4d4vG_SEdJMuqijJNs-58" vertex="1">
          <mxGeometry width="230" height="26" as="geometry" />
        </mxCell>
        <mxCell id="aL4d4vG_SEdJMuqijJNs-60" style="shape=partialRectangle;html=1;whiteSpace=wrap;collapsible=0;dropTarget=0;pointerEvents=0;fillColor=none;top=0;left=0;bottom=0;right=0;points=[[0,0.5],[1,0.5]];portConstraint=eastwest;" parent="aL4d4vG_SEdJMuqijJNs-55" vertex="1">
          <mxGeometry y="57" width="230" height="26" as="geometry" />
        </mxCell>
        <mxCell id="aL4d4vG_SEdJMuqijJNs-61" value="&lt;span style=&quot;font-family: &amp;#34;roboto&amp;#34; , &amp;#34;robotodraft&amp;#34; , &amp;#34;helvetica&amp;#34; , &amp;#34;arial&amp;#34; , sans-serif ; font-size: 13px ; background-color: rgb(255 , 255 , 255)&quot;&gt;不正な情報を入力し送信ボタンを押す&lt;/span&gt;" style="shape=partialRectangle;html=1;whiteSpace=wrap;connectable=0;overflow=hidden;fillColor=none;top=0;left=0;bottom=0;right=0;" parent="aL4d4vG_SEdJMuqijJNs-60" vertex="1">
          <mxGeometry width="230" height="26" as="geometry" />
        </mxCell>
        <mxCell id="aL4d4vG_SEdJMuqijJNs-62" style="edgeStyle=orthogonalEdgeStyle;orthogonalLoop=1;jettySize=auto;html=1;exitX=1;exitY=0.5;exitDx=0;exitDy=0;exitPerimeter=0;curved=1;" parent="aL4d4vG_SEdJMuqijJNs-55" source="aL4d4vG_SEdJMuqijJNs-60" edge="1">
          <mxGeometry relative="1" as="geometry">
            <mxPoint x="240" y="70" as="sourcePoint" />
            <mxPoint x="210" y="84" as="targetPoint" />
            <Array as="points">
              <mxPoint x="400" y="70" />
              <mxPoint x="400" y="84" />
            </Array>
          </mxGeometry>
        </mxCell>
        <mxCell id="aL4d4vG_SEdJMuqijJNs-63" value="" style="shape=table;html=1;whiteSpace=wrap;startSize=0;container=1;collapsible=0;childLayout=tableLayout;fillColor=#fff2cc;strokeColor=#d6b656;" parent="WIyWlLk6GJQsqaUBKTNV-1" vertex="1">
          <mxGeometry x="1070" y="370" width="210" height="30" as="geometry" />
        </mxCell>
        <mxCell id="aL4d4vG_SEdJMuqijJNs-64" value="" style="shape=partialRectangle;html=1;whiteSpace=wrap;collapsible=0;dropTarget=0;pointerEvents=0;fillColor=none;top=0;left=0;bottom=0;right=0;points=[[0,0.5],[1,0.5]];portConstraint=eastwest;" parent="aL4d4vG_SEdJMuqijJNs-63" vertex="1">
          <mxGeometry width="210" height="30" as="geometry" />
        </mxCell>
        <mxCell id="aL4d4vG_SEdJMuqijJNs-65" value="&lt;span style=&quot;font-family: &amp;#34;roboto&amp;#34; , &amp;#34;robotodraft&amp;#34; , &amp;#34;helvetica&amp;#34; , &amp;#34;arial&amp;#34; , sans-serif ; font-size: 13px ; background-color: rgb(255 , 242 , 204)&quot;&gt;管理企業へメールが送信される&lt;/span&gt;" style="shape=partialRectangle;html=1;whiteSpace=wrap;connectable=0;overflow=hidden;fillColor=none;top=0;left=0;bottom=0;right=0;" parent="aL4d4vG_SEdJMuqijJNs-64" vertex="1">
          <mxGeometry width="210" height="30" as="geometry" />
        </mxCell>
        <mxCell id="aL4d4vG_SEdJMuqijJNs-66" value="" style="shape=table;html=1;whiteSpace=wrap;startSize=0;container=1;collapsible=0;childLayout=tableLayout;fillColor=#fff2cc;strokeColor=#d6b656;" parent="WIyWlLk6GJQsqaUBKTNV-1" vertex="1">
          <mxGeometry x="570" y="160" width="150" height="30" as="geometry" />
        </mxCell>
        <mxCell id="aL4d4vG_SEdJMuqijJNs-67" value="" style="shape=partialRectangle;html=1;whiteSpace=wrap;collapsible=0;dropTarget=0;pointerEvents=0;fillColor=none;top=0;left=0;bottom=0;right=0;points=[[0,0.5],[1,0.5]];portConstraint=eastwest;" parent="aL4d4vG_SEdJMuqijJNs-66" vertex="1">
          <mxGeometry width="150" height="30" as="geometry" />
        </mxCell>
        <mxCell id="aL4d4vG_SEdJMuqijJNs-68" value="&lt;span style=&quot;font-family: &amp;#34;roboto&amp;#34; , &amp;#34;robotodraft&amp;#34; , &amp;#34;helvetica&amp;#34; , &amp;#34;arial&amp;#34; , sans-serif ; font-size: 13px ; background-color: rgb(255 , 242 , 204)&quot;&gt;Top画面へ遷移&lt;/span&gt;" style="shape=partialRectangle;html=1;whiteSpace=wrap;connectable=0;overflow=hidden;fillColor=none;top=0;left=0;bottom=0;right=0;" parent="aL4d4vG_SEdJMuqijJNs-67" vertex="1">
          <mxGeometry width="150" height="30" as="geometry" />
        </mxCell>
        <mxCell id="aL4d4vG_SEdJMuqijJNs-69" style="edgeStyle=orthogonalEdgeStyle;orthogonalLoop=1;jettySize=auto;html=1;exitX=1;exitY=0.5;exitDx=0;exitDy=0;curved=1;" parent="WIyWlLk6GJQsqaUBKTNV-1" source="aL4d4vG_SEdJMuqijJNs-73" target="aL4d4vG_SEdJMuqijJNs-17" edge="1">
          <mxGeometry relative="1" as="geometry">
            <mxPoint x="1010" y="538" as="sourcePoint" />
            <mxPoint x="930" y="715" as="targetPoint" />
            <Array as="points">
              <mxPoint x="1070" y="485" />
              <mxPoint x="1070" y="700" />
            </Array>
          </mxGeometry>
        </mxCell>
        <mxCell id="aL4d4vG_SEdJMuqijJNs-70" value="" style="shape=table;html=1;whiteSpace=wrap;startSize=0;container=1;collapsible=0;childLayout=tableLayout;" parent="WIyWlLk6GJQsqaUBKTNV-1" vertex="1">
          <mxGeometry x="840" y="450" width="210" height="100" as="geometry" />
        </mxCell>
        <mxCell id="aL4d4vG_SEdJMuqijJNs-71" value="" style="shape=partialRectangle;html=1;whiteSpace=wrap;collapsible=0;dropTarget=0;pointerEvents=0;fillColor=none;top=0;left=0;bottom=0;right=0;points=[[0,0.5],[1,0.5]];portConstraint=eastwest;" parent="aL4d4vG_SEdJMuqijJNs-70" vertex="1">
          <mxGeometry width="210" height="25" as="geometry" />
        </mxCell>
        <mxCell id="aL4d4vG_SEdJMuqijJNs-72" value="&lt;meta charset=&quot;utf-8&quot;&gt;&lt;span style=&quot;color: rgb(0, 0, 0); font-family: roboto, robotodraft, helvetica, arial, sans-serif; font-size: 13px; font-style: normal; font-weight: 400; letter-spacing: normal; text-align: center; text-indent: 0px; text-transform: none; word-spacing: 0px; background-color: rgb(255, 255, 255); display: inline; float: none;&quot;&gt;現在関与しているプロジェクト一覧&lt;/span&gt;" style="shape=partialRectangle;html=1;whiteSpace=wrap;connectable=0;overflow=hidden;fillColor=#dae8fc;top=0;left=0;bottom=0;right=0;strokeColor=#6c8ebf;" parent="aL4d4vG_SEdJMuqijJNs-71" vertex="1">
          <mxGeometry width="210" height="25" as="geometry" />
        </mxCell>
        <mxCell id="aL4d4vG_SEdJMuqijJNs-73" style="shape=partialRectangle;html=1;whiteSpace=wrap;collapsible=0;dropTarget=0;pointerEvents=0;fillColor=none;top=0;left=0;bottom=0;right=0;points=[[0,0.5],[1,0.5]];portConstraint=eastwest;" parent="aL4d4vG_SEdJMuqijJNs-70" vertex="1">
          <mxGeometry y="25" width="210" height="20" as="geometry" />
        </mxCell>
        <mxCell id="aL4d4vG_SEdJMuqijJNs-74" value="&lt;meta charset=&quot;utf-8&quot;&gt;&lt;span style=&quot;color: rgb(0, 0, 0); font-family: roboto, robotodraft, helvetica, arial, sans-serif; font-size: 13px; font-style: normal; font-weight: 400; letter-spacing: normal; text-indent: 0px; text-transform: none; word-spacing: 0px; background-color: rgb(255, 255, 255); display: inline; float: none;&quot;&gt;タイトルをクリック&lt;/span&gt;" style="shape=partialRectangle;html=1;whiteSpace=wrap;connectable=0;overflow=hidden;fillColor=none;top=0;left=0;bottom=0;right=0;" parent="aL4d4vG_SEdJMuqijJNs-73" vertex="1">
          <mxGeometry width="210" height="20" as="geometry" />
        </mxCell>
        <mxCell id="aL4d4vG_SEdJMuqijJNs-140" style="shape=partialRectangle;html=1;whiteSpace=wrap;collapsible=0;dropTarget=0;pointerEvents=0;fillColor=none;top=0;left=0;bottom=0;right=0;points=[[0,0.5],[1,0.5]];portConstraint=eastwest;" parent="aL4d4vG_SEdJMuqijJNs-70" vertex="1">
          <mxGeometry y="45" width="210" height="25" as="geometry" />
        </mxCell>
        <mxCell id="aL4d4vG_SEdJMuqijJNs-141" value="チャットルームをクリック" style="shape=partialRectangle;html=1;whiteSpace=wrap;connectable=0;overflow=hidden;fillColor=none;top=0;left=0;bottom=0;right=0;" parent="aL4d4vG_SEdJMuqijJNs-140" vertex="1">
          <mxGeometry width="210" height="25" as="geometry" />
        </mxCell>
        <mxCell id="9sWYosas5AgW0Uu0xi2V-6" style="shape=partialRectangle;html=1;whiteSpace=wrap;collapsible=0;dropTarget=0;pointerEvents=0;fillColor=none;top=0;left=0;bottom=0;right=0;points=[[0,0.5],[1,0.5]];portConstraint=eastwest;" parent="aL4d4vG_SEdJMuqijJNs-70" vertex="1">
          <mxGeometry y="70" width="210" height="30" as="geometry" />
        </mxCell>
        <mxCell id="9sWYosas5AgW0Uu0xi2V-7" value="非参加にするをクリック" style="shape=partialRectangle;html=1;whiteSpace=wrap;connectable=0;overflow=hidden;fillColor=none;top=0;left=0;bottom=0;right=0;" parent="9sWYosas5AgW0Uu0xi2V-6" vertex="1">
          <mxGeometry width="210" height="30" as="geometry" />
        </mxCell>
        <mxCell id="aL4d4vG_SEdJMuqijJNs-82" value="" style="shape=table;html=1;whiteSpace=wrap;startSize=0;container=1;collapsible=0;childLayout=tableLayout;" parent="WIyWlLk6GJQsqaUBKTNV-1" vertex="1">
          <mxGeometry x="760" y="569.5" width="240" height="100" as="geometry" />
        </mxCell>
        <mxCell id="aL4d4vG_SEdJMuqijJNs-83" value="" style="shape=partialRectangle;html=1;whiteSpace=wrap;collapsible=0;dropTarget=0;pointerEvents=0;fillColor=none;top=0;left=0;bottom=0;right=0;points=[[0,0.5],[1,0.5]];portConstraint=eastwest;" parent="aL4d4vG_SEdJMuqijJNs-82" vertex="1">
          <mxGeometry width="240" height="33" as="geometry" />
        </mxCell>
        <mxCell id="aL4d4vG_SEdJMuqijJNs-84" value="&lt;span style=&quot;font-family: &amp;#34;roboto&amp;#34; , &amp;#34;robotodraft&amp;#34; , &amp;#34;helvetica&amp;#34; , &amp;#34;arial&amp;#34; , sans-serif ; font-size: 13px ; background-color: rgb(255 , 255 , 255)&quot;&gt;新規ユーザ登録画面&lt;/span&gt;" style="shape=partialRectangle;html=1;whiteSpace=wrap;connectable=0;overflow=hidden;fillColor=#dae8fc;top=0;left=0;bottom=0;right=0;strokeColor=#6c8ebf;" parent="aL4d4vG_SEdJMuqijJNs-83" vertex="1">
          <mxGeometry width="240" height="33" as="geometry" />
        </mxCell>
        <mxCell id="aL4d4vG_SEdJMuqijJNs-85" style="shape=partialRectangle;html=1;whiteSpace=wrap;collapsible=0;dropTarget=0;pointerEvents=0;fillColor=none;top=0;left=0;bottom=0;right=0;points=[[0,0.5],[1,0.5]];portConstraint=eastwest;" parent="aL4d4vG_SEdJMuqijJNs-82" vertex="1">
          <mxGeometry y="33" width="240" height="34" as="geometry" />
        </mxCell>
        <mxCell id="aL4d4vG_SEdJMuqijJNs-86" value="&lt;meta charset=&quot;utf-8&quot;&gt;&lt;span style=&quot;color: rgb(0, 0, 0); font-family: roboto, robotodraft, helvetica, arial, sans-serif; font-size: 13px; font-style: normal; font-weight: 400; letter-spacing: normal; text-indent: 0px; text-transform: none; word-spacing: 0px; background-color: rgb(255, 255, 255); display: inline; float: none;&quot;&gt;正しい情報を入力し送信ボタンを押す&lt;/span&gt;" style="shape=partialRectangle;html=1;whiteSpace=wrap;connectable=0;overflow=hidden;fillColor=none;top=0;left=0;bottom=0;right=0;" parent="aL4d4vG_SEdJMuqijJNs-85" vertex="1">
          <mxGeometry width="240" height="34" as="geometry" />
        </mxCell>
        <mxCell id="aL4d4vG_SEdJMuqijJNs-87" style="shape=partialRectangle;html=1;whiteSpace=wrap;collapsible=0;dropTarget=0;pointerEvents=0;fillColor=none;top=0;left=0;bottom=0;right=0;points=[[0,0.5],[1,0.5]];portConstraint=eastwest;" parent="aL4d4vG_SEdJMuqijJNs-82" vertex="1">
          <mxGeometry y="67" width="240" height="33" as="geometry" />
        </mxCell>
        <mxCell id="aL4d4vG_SEdJMuqijJNs-88" value="&lt;span style=&quot;font-family: &amp;#34;roboto&amp;#34; , &amp;#34;robotodraft&amp;#34; , &amp;#34;helvetica&amp;#34; , &amp;#34;arial&amp;#34; , sans-serif ; font-size: 13px ; background-color: rgb(255 , 255 , 255)&quot;&gt;不正な情報を入力し送信ボタンを押す&lt;/span&gt;" style="shape=partialRectangle;html=1;whiteSpace=wrap;connectable=0;overflow=hidden;fillColor=none;top=0;left=0;bottom=0;right=0;" parent="aL4d4vG_SEdJMuqijJNs-87" vertex="1">
          <mxGeometry width="240" height="33" as="geometry" />
        </mxCell>
        <mxCell id="aL4d4vG_SEdJMuqijJNs-89" style="edgeStyle=orthogonalEdgeStyle;orthogonalLoop=1;jettySize=auto;html=1;exitX=1;exitY=0.5;exitDx=0;exitDy=0;entryX=1;entryY=0.985;entryDx=0;entryDy=0;entryPerimeter=0;curved=1;" parent="aL4d4vG_SEdJMuqijJNs-82" source="aL4d4vG_SEdJMuqijJNs-87" target="aL4d4vG_SEdJMuqijJNs-87" edge="1">
          <mxGeometry relative="1" as="geometry">
            <mxPoint x="280" y="70.5" as="sourcePoint" />
            <mxPoint x="200" y="248" as="targetPoint" />
            <Array as="points">
              <mxPoint x="240" y="72" />
              <mxPoint x="420" y="72" />
              <mxPoint x="420" y="100" />
            </Array>
          </mxGeometry>
        </mxCell>
        <mxCell id="aL4d4vG_SEdJMuqijJNs-91" style="edgeStyle=none;orthogonalLoop=1;jettySize=auto;html=1;entryX=1;entryY=0.5;entryDx=0;entryDy=0;startArrow=blockThin;startFill=1;endArrow=none;endFill=0;exitX=0;exitY=0.5;exitDx=0;exitDy=0;curved=1;" parent="WIyWlLk6GJQsqaUBKTNV-1" source="aL4d4vG_SEdJMuqijJNs-32" target="aL4d4vG_SEdJMuqijJNs-121" edge="1">
          <mxGeometry relative="1" as="geometry">
            <mxPoint x="967" y="770" as="sourcePoint" />
          </mxGeometry>
        </mxCell>
        <mxCell id="aL4d4vG_SEdJMuqijJNs-94" style="edgeStyle=none;orthogonalLoop=1;jettySize=auto;html=1;exitX=0;exitY=0.5;exitDx=0;exitDy=0;entryX=1;entryY=0.5;entryDx=0;entryDy=0;startArrow=blockThin;startFill=1;endArrow=none;endFill=0;curved=1;" parent="WIyWlLk6GJQsqaUBKTNV-1" source="aL4d4vG_SEdJMuqijJNs-17" target="aL4d4vG_SEdJMuqijJNs-12" edge="1">
          <mxGeometry relative="1" as="geometry">
            <mxPoint x="730" y="750" as="sourcePoint" />
            <mxPoint x="683" y="780" as="targetPoint" />
          </mxGeometry>
        </mxCell>
        <mxCell id="aL4d4vG_SEdJMuqijJNs-95" value="" style="shape=table;html=1;whiteSpace=wrap;startSize=0;container=1;collapsible=0;childLayout=tableLayout;fillColor=#fff2cc;strokeColor=#d6b656;" parent="WIyWlLk6GJQsqaUBKTNV-1" vertex="1">
          <mxGeometry x="750" y="930" width="240" height="40" as="geometry" />
        </mxCell>
        <mxCell id="aL4d4vG_SEdJMuqijJNs-96" value="" style="shape=partialRectangle;html=1;whiteSpace=wrap;collapsible=0;dropTarget=0;pointerEvents=0;fillColor=none;top=0;left=0;bottom=0;right=0;points=[[0,0.5],[1,0.5]];portConstraint=eastwest;" parent="aL4d4vG_SEdJMuqijJNs-95" vertex="1">
          <mxGeometry width="240" height="40" as="geometry" />
        </mxCell>
        <mxCell id="aL4d4vG_SEdJMuqijJNs-97" value="&lt;span style=&quot;font-family: &amp;#34;roboto&amp;#34; , &amp;#34;robotodraft&amp;#34; , &amp;#34;helvetica&amp;#34; , &amp;#34;arial&amp;#34; , sans-serif ; font-size: 13px ; background-color: rgb(255 , 242 , 204)&quot;&gt;タグに紐付いた新規提案・プロジェクト一覧が表示される&lt;/span&gt;" style="shape=partialRectangle;html=1;whiteSpace=wrap;connectable=0;overflow=hidden;fillColor=none;top=0;left=0;bottom=0;right=0;" parent="aL4d4vG_SEdJMuqijJNs-96" vertex="1">
          <mxGeometry width="240" height="40" as="geometry" />
        </mxCell>
        <mxCell id="aL4d4vG_SEdJMuqijJNs-98" style="edgeStyle=none;orthogonalLoop=1;jettySize=auto;html=1;exitX=0;exitY=0.5;exitDx=0;exitDy=0;entryX=0.935;entryY=1.091;entryDx=0;entryDy=0;startArrow=blockThin;startFill=1;endArrow=none;endFill=0;entryPerimeter=0;curved=1;" parent="WIyWlLk6GJQsqaUBKTNV-1" source="aL4d4vG_SEdJMuqijJNs-96" target="aL4d4vG_SEdJMuqijJNs-14" edge="1">
          <mxGeometry relative="1" as="geometry">
            <mxPoint x="750" y="800" as="sourcePoint" />
            <mxPoint x="710" y="840" as="targetPoint" />
          </mxGeometry>
        </mxCell>
        <mxCell id="aL4d4vG_SEdJMuqijJNs-99" value="" style="shape=table;html=1;whiteSpace=wrap;startSize=0;container=1;collapsible=0;childLayout=tableLayout;fillColor=#fff2cc;strokeColor=#d6b656;" parent="WIyWlLk6GJQsqaUBKTNV-1" vertex="1">
          <mxGeometry x="1115" y="600" width="275" height="30" as="geometry" />
        </mxCell>
        <mxCell id="aL4d4vG_SEdJMuqijJNs-100" value="" style="shape=partialRectangle;html=1;whiteSpace=wrap;collapsible=0;dropTarget=0;pointerEvents=0;fillColor=none;top=0;left=0;bottom=0;right=0;points=[[0,0.5],[1,0.5]];portConstraint=eastwest;" parent="aL4d4vG_SEdJMuqijJNs-99" vertex="1">
          <mxGeometry width="275" height="30" as="geometry" />
        </mxCell>
        <mxCell id="aL4d4vG_SEdJMuqijJNs-101" value="&lt;span style=&quot;font-family: &amp;#34;roboto&amp;#34; , &amp;#34;robotodraft&amp;#34; , &amp;#34;helvetica&amp;#34; , &amp;#34;arial&amp;#34; , sans-serif ; font-size: 13px ; background-color: rgb(255 , 242 , 204)&quot;&gt;登録されたユーザーの詳細画面が表示される&lt;/span&gt;" style="shape=partialRectangle;html=1;whiteSpace=wrap;connectable=0;overflow=hidden;fillColor=none;top=0;left=0;bottom=0;right=0;" parent="aL4d4vG_SEdJMuqijJNs-100" vertex="1">
          <mxGeometry width="275" height="30" as="geometry" />
        </mxCell>
        <mxCell id="aL4d4vG_SEdJMuqijJNs-102" style="edgeStyle=none;orthogonalLoop=1;jettySize=auto;html=1;exitX=0;exitY=0.5;exitDx=0;exitDy=0;entryX=1;entryY=0.5;entryDx=0;entryDy=0;startArrow=blockThin;startFill=1;endArrow=none;endFill=0;curved=1;" parent="WIyWlLk6GJQsqaUBKTNV-1" source="aL4d4vG_SEdJMuqijJNs-100" target="aL4d4vG_SEdJMuqijJNs-85" edge="1">
          <mxGeometry relative="1" as="geometry">
            <mxPoint x="1130" y="570" as="sourcePoint" />
            <mxPoint x="1083" y="600" as="targetPoint" />
          </mxGeometry>
        </mxCell>
        <mxCell id="aL4d4vG_SEdJMuqijJNs-103" style="edgeStyle=none;orthogonalLoop=1;jettySize=auto;html=1;exitX=0;exitY=0.5;exitDx=0;exitDy=0;entryX=1;entryY=0.5;entryDx=0;entryDy=0;startArrow=blockThin;startFill=1;endArrow=none;endFill=0;curved=1;" parent="WIyWlLk6GJQsqaUBKTNV-1" source="aL4d4vG_SEdJMuqijJNs-64" target="aL4d4vG_SEdJMuqijJNs-58" edge="1">
          <mxGeometry relative="1" as="geometry">
            <mxPoint x="1040" y="390" as="sourcePoint" />
            <mxPoint x="993" y="420" as="targetPoint" />
          </mxGeometry>
        </mxCell>
        <mxCell id="aL4d4vG_SEdJMuqijJNs-104" style="edgeStyle=none;orthogonalLoop=1;jettySize=auto;html=1;exitX=0;exitY=0.5;exitDx=0;exitDy=0;entryX=1;entryY=0.5;entryDx=0;entryDy=0;startArrow=blockThin;startFill=1;endArrow=none;endFill=0;curved=1;" parent="WIyWlLk6GJQsqaUBKTNV-1" source="aL4d4vG_SEdJMuqijJNs-53" target="aL4d4vG_SEdJMuqijJNs-48" edge="1">
          <mxGeometry relative="1" as="geometry">
            <mxPoint x="1050" y="300" as="sourcePoint" />
            <mxPoint x="1003" y="330" as="targetPoint" />
          </mxGeometry>
        </mxCell>
        <mxCell id="aL4d4vG_SEdJMuqijJNs-105" style="edgeStyle=orthogonalEdgeStyle;orthogonalLoop=1;jettySize=auto;html=1;exitX=1;exitY=0.5;exitDx=0;exitDy=0;curved=1;" parent="WIyWlLk6GJQsqaUBKTNV-1" source="aL4d4vG_SEdJMuqijJNs-50" edge="1">
          <mxGeometry relative="1" as="geometry">
            <mxPoint x="1030" y="320" as="sourcePoint" />
            <mxPoint x="1000" y="334" as="targetPoint" />
            <Array as="points">
              <mxPoint x="1200" y="320" />
              <mxPoint x="1200" y="340" />
              <mxPoint x="1010" y="340" />
            </Array>
          </mxGeometry>
        </mxCell>
        <mxCell id="aL4d4vG_SEdJMuqijJNs-108" style="edgeStyle=none;orthogonalLoop=1;jettySize=auto;html=1;exitX=0;exitY=0.5;exitDx=0;exitDy=0;entryX=1;entryY=0.5;entryDx=0;entryDy=0;startArrow=blockThin;startFill=1;endArrow=none;endFill=0;curved=1;" parent="WIyWlLk6GJQsqaUBKTNV-1" source="aL4d4vG_SEdJMuqijJNs-56" target="aL4d4vG_SEdJMuqijJNs-39" edge="1">
          <mxGeometry relative="1" as="geometry">
            <mxPoint x="770" y="320" as="sourcePoint" />
            <mxPoint x="730" y="365.5" as="targetPoint" />
          </mxGeometry>
        </mxCell>
        <mxCell id="aL4d4vG_SEdJMuqijJNs-109" style="edgeStyle=none;orthogonalLoop=1;jettySize=auto;html=1;exitX=0;exitY=0.5;exitDx=0;exitDy=0;entryX=1;entryY=0.5;entryDx=0;entryDy=0;startArrow=blockThin;startFill=1;endArrow=none;endFill=0;curved=1;" parent="WIyWlLk6GJQsqaUBKTNV-1" source="aL4d4vG_SEdJMuqijJNs-46" target="aL4d4vG_SEdJMuqijJNs-37" edge="1">
          <mxGeometry relative="1" as="geometry">
            <mxPoint x="770" y="280" as="sourcePoint" />
            <mxPoint x="740" y="232" as="targetPoint" />
          </mxGeometry>
        </mxCell>
        <mxCell id="aL4d4vG_SEdJMuqijJNs-75" value="" style="shape=table;html=1;whiteSpace=wrap;startSize=0;container=1;collapsible=0;childLayout=tableLayout;" parent="WIyWlLk6GJQsqaUBKTNV-1" vertex="1">
          <mxGeometry x="540" y="400" width="220" height="74.5" as="geometry" />
        </mxCell>
        <mxCell id="aL4d4vG_SEdJMuqijJNs-76" value="" style="shape=partialRectangle;html=1;whiteSpace=wrap;collapsible=0;dropTarget=0;pointerEvents=0;fillColor=none;top=0;left=0;bottom=0;right=0;points=[[0,0.5],[1,0.5]];portConstraint=eastwest;" parent="aL4d4vG_SEdJMuqijJNs-75" vertex="1">
          <mxGeometry width="220" height="21" as="geometry" />
        </mxCell>
        <mxCell id="aL4d4vG_SEdJMuqijJNs-77" value="ヘッダーリンク(ログアウト時)" style="shape=partialRectangle;html=1;whiteSpace=wrap;connectable=0;overflow=hidden;fillColor=#dae8fc;top=0;left=0;bottom=0;right=0;strokeColor=#6c8ebf;" parent="aL4d4vG_SEdJMuqijJNs-76" vertex="1">
          <mxGeometry width="220" height="21" as="geometry" />
        </mxCell>
        <mxCell id="aL4d4vG_SEdJMuqijJNs-78" value="" style="shape=partialRectangle;html=1;whiteSpace=wrap;collapsible=0;dropTarget=0;pointerEvents=0;fillColor=none;top=0;left=0;bottom=0;right=0;points=[[0,0.5],[1,0.5]];portConstraint=eastwest;" parent="aL4d4vG_SEdJMuqijJNs-75" vertex="1">
          <mxGeometry y="21" width="220" height="27" as="geometry" />
        </mxCell>
        <mxCell id="aL4d4vG_SEdJMuqijJNs-79" value="&lt;span style=&quot;font-family: &amp;#34;roboto&amp;#34; , &amp;#34;robotodraft&amp;#34; , &amp;#34;helvetica&amp;#34; , &amp;#34;arial&amp;#34; , sans-serif ; font-size: 13px ; background-color: rgb(255 , 255 , 255)&quot;&gt;新規ユーザー登録&lt;/span&gt;" style="shape=partialRectangle;html=1;whiteSpace=wrap;connectable=0;overflow=hidden;fillColor=none;top=0;left=0;bottom=0;right=0;" parent="aL4d4vG_SEdJMuqijJNs-78" vertex="1">
          <mxGeometry width="220" height="27" as="geometry" />
        </mxCell>
        <mxCell id="aL4d4vG_SEdJMuqijJNs-80" value="" style="shape=partialRectangle;html=1;whiteSpace=wrap;collapsible=0;dropTarget=0;pointerEvents=0;fillColor=none;top=0;left=0;bottom=0;right=0;points=[[0,0.5],[1,0.5]];portConstraint=eastwest;" parent="aL4d4vG_SEdJMuqijJNs-75" vertex="1">
          <mxGeometry y="48" width="220" height="27" as="geometry" />
        </mxCell>
        <mxCell id="aL4d4vG_SEdJMuqijJNs-81" value="&lt;span style=&quot;font-family: &amp;#34;arial&amp;#34; ; font-size: 13px ; text-align: left ; background-color: rgb(255 , 255 , 255)&quot;&gt;ログイン&lt;/span&gt;" style="shape=partialRectangle;html=1;whiteSpace=wrap;connectable=0;overflow=hidden;fillColor=none;top=0;left=0;bottom=0;right=0;" parent="aL4d4vG_SEdJMuqijJNs-80" vertex="1">
          <mxGeometry width="220" height="27" as="geometry" />
        </mxCell>
        <mxCell id="aL4d4vG_SEdJMuqijJNs-111" value="" style="edgeStyle=orthogonalEdgeStyle;orthogonalLoop=1;jettySize=auto;html=1;exitX=1;exitY=0.5;exitDx=0;exitDy=0;entryX=1;entryY=0.5;entryDx=0;entryDy=0;curved=1;" parent="WIyWlLk6GJQsqaUBKTNV-1" source="aL4d4vG_SEdJMuqijJNs-41" target="aL4d4vG_SEdJMuqijJNs-67" edge="1">
          <mxGeometry relative="1" as="geometry">
            <mxPoint x="760" y="344" as="sourcePoint" />
            <mxPoint x="450" y="310" as="targetPoint" />
            <Array as="points">
              <mxPoint x="770" y="344" />
              <mxPoint x="770" y="175" />
            </Array>
          </mxGeometry>
        </mxCell>
        <mxCell id="aL4d4vG_SEdJMuqijJNs-113" style="edgeStyle=none;orthogonalLoop=1;jettySize=auto;html=1;exitX=1;exitY=0.5;exitDx=0;exitDy=0;entryX=0;entryY=0.5;entryDx=0;entryDy=0;startArrow=blockThin;startFill=1;endArrow=none;endFill=0;curved=1;" parent="WIyWlLk6GJQsqaUBKTNV-1" source="aL4d4vG_SEdJMuqijJNs-2" target="aL4d4vG_SEdJMuqijJNs-80" edge="1">
          <mxGeometry relative="1" as="geometry">
            <mxPoint x="510" y="430" as="sourcePoint" />
            <mxPoint x="460" y="439" as="targetPoint" />
          </mxGeometry>
        </mxCell>
        <mxCell id="aL4d4vG_SEdJMuqijJNs-118" value="" style="edgeStyle=orthogonalEdgeStyle;orthogonalLoop=1;jettySize=auto;html=1;exitX=1;exitY=0.5;exitDx=0;exitDy=0;entryX=0.075;entryY=-0.106;entryDx=0;entryDy=0;entryPerimeter=0;curved=1;" parent="WIyWlLk6GJQsqaUBKTNV-1" source="aL4d4vG_SEdJMuqijJNs-78" target="aL4d4vG_SEdJMuqijJNs-83" edge="1">
          <mxGeometry relative="1" as="geometry">
            <mxPoint x="750" y="520" as="sourcePoint" />
            <mxPoint x="760" y="580" as="targetPoint" />
            <Array as="points">
              <mxPoint x="778" y="435" />
            </Array>
          </mxGeometry>
        </mxCell>
        <mxCell id="aL4d4vG_SEdJMuqijJNs-119" value="※ コメントは非同期で表示" style="text;html=1;align=center;verticalAlign=middle;resizable=0;points=[];autosize=1;" parent="WIyWlLk6GJQsqaUBKTNV-1" vertex="1">
          <mxGeometry x="1010" y="840" width="160" height="20" as="geometry" />
        </mxCell>
        <mxCell id="aL4d4vG_SEdJMuqijJNs-120" value="※ タグは管理者側が管理する。ユーザーは問合せで新規作成をお願いできる。" style="text;html=1;align=center;verticalAlign=middle;resizable=0;points=[];autosize=1;" parent="WIyWlLk6GJQsqaUBKTNV-1" vertex="1">
          <mxGeometry x="320" y="800" width="430" height="20" as="geometry" />
        </mxCell>
        <mxCell id="aL4d4vG_SEdJMuqijJNs-123" value="" style="shape=table;html=1;whiteSpace=wrap;startSize=0;container=1;collapsible=0;childLayout=tableLayout;fillColor=#fff2cc;strokeColor=#d6b656;" parent="WIyWlLk6GJQsqaUBKTNV-1" vertex="1">
          <mxGeometry x="970" y="705" width="240" height="30" as="geometry" />
        </mxCell>
        <mxCell id="aL4d4vG_SEdJMuqijJNs-124" value="" style="shape=partialRectangle;html=1;whiteSpace=wrap;collapsible=0;dropTarget=0;pointerEvents=0;fillColor=none;top=0;left=0;bottom=0;right=0;points=[[0,0.5],[1,0.5]];portConstraint=eastwest;" parent="aL4d4vG_SEdJMuqijJNs-123" vertex="1">
          <mxGeometry width="240" height="30" as="geometry" />
        </mxCell>
        <mxCell id="aL4d4vG_SEdJMuqijJNs-125" value="&lt;font face=&quot;roboto, robotodraft, helvetica, arial, sans-serif&quot;&gt;&lt;span style=&quot;font-size: 13px ; background-color: rgb(255 , 242 , 204)&quot;&gt;企業詳細が表示される&lt;/span&gt;&lt;/font&gt;" style="shape=partialRectangle;html=1;whiteSpace=wrap;connectable=0;overflow=hidden;fillColor=none;top=0;left=0;bottom=0;right=0;" parent="aL4d4vG_SEdJMuqijJNs-124" vertex="1">
          <mxGeometry width="240" height="30" as="geometry" />
        </mxCell>
        <mxCell id="aL4d4vG_SEdJMuqijJNs-126" style="edgeStyle=none;orthogonalLoop=1;jettySize=auto;html=1;entryX=1;entryY=0.5;entryDx=0;entryDy=0;startArrow=blockThin;startFill=1;endArrow=none;endFill=0;exitX=0;exitY=0.5;exitDx=0;exitDy=0;curved=1;" parent="WIyWlLk6GJQsqaUBKTNV-1" source="aL4d4vG_SEdJMuqijJNs-124" target="aL4d4vG_SEdJMuqijJNs-19" edge="1">
          <mxGeometry relative="1" as="geometry">
            <mxPoint x="970" y="735" as="sourcePoint" />
            <mxPoint x="920" y="750" as="targetPoint" />
          </mxGeometry>
        </mxCell>
        <mxCell id="aL4d4vG_SEdJMuqijJNs-129" value="" style="shape=table;html=1;whiteSpace=wrap;startSize=0;container=1;collapsible=0;childLayout=tableLayout;fillColor=#fff2cc;strokeColor=#d6b656;" parent="WIyWlLk6GJQsqaUBKTNV-1" vertex="1">
          <mxGeometry x="970" y="870" width="240" height="30" as="geometry" />
        </mxCell>
        <mxCell id="aL4d4vG_SEdJMuqijJNs-130" value="" style="shape=partialRectangle;html=1;whiteSpace=wrap;collapsible=0;dropTarget=0;pointerEvents=0;fillColor=none;top=0;left=0;bottom=0;right=0;points=[[0,0.5],[1,0.5]];portConstraint=eastwest;" parent="aL4d4vG_SEdJMuqijJNs-129" vertex="1">
          <mxGeometry width="240" height="30" as="geometry" />
        </mxCell>
        <mxCell id="aL4d4vG_SEdJMuqijJNs-131" value="コメント一覧画面が表示される" style="shape=partialRectangle;html=1;whiteSpace=wrap;connectable=0;overflow=hidden;fillColor=none;top=0;left=0;bottom=0;right=0;" parent="aL4d4vG_SEdJMuqijJNs-130" vertex="1">
          <mxGeometry width="240" height="30" as="geometry" />
        </mxCell>
        <mxCell id="aL4d4vG_SEdJMuqijJNs-132" style="edgeStyle=none;orthogonalLoop=1;jettySize=auto;html=1;entryX=1;entryY=0.5;entryDx=0;entryDy=0;startArrow=blockThin;startFill=1;endArrow=none;endFill=0;exitX=0;exitY=0.5;exitDx=0;exitDy=0;curved=1;" parent="WIyWlLk6GJQsqaUBKTNV-1" source="aL4d4vG_SEdJMuqijJNs-130" target="aL4d4vG_SEdJMuqijJNs-127" edge="1">
          <mxGeometry relative="1" as="geometry">
            <mxPoint x="940" y="850" as="sourcePoint" />
            <mxPoint x="890" y="865" as="targetPoint" />
          </mxGeometry>
        </mxCell>
        <mxCell id="aL4d4vG_SEdJMuqijJNs-137" value="" style="edgeStyle=orthogonalEdgeStyle;orthogonalLoop=1;jettySize=auto;html=1;exitX=1.014;exitY=0.744;exitDx=0;exitDy=0;exitPerimeter=0;curved=1;" parent="WIyWlLk6GJQsqaUBKTNV-1" source="aL4d4vG_SEdJMuqijJNs-43" edge="1">
          <mxGeometry relative="1" as="geometry">
            <mxPoint x="800" y="460" as="sourcePoint" />
            <mxPoint x="840" y="484" as="targetPoint" />
            <Array as="points">
              <mxPoint x="780" y="389" />
              <mxPoint x="780" y="484" />
              <mxPoint x="827" y="484" />
            </Array>
          </mxGeometry>
        </mxCell>
        <mxCell id="aL4d4vG_SEdJMuqijJNs-145" value="" style="shape=partialRectangle;html=1;whiteSpace=wrap;collapsible=0;dropTarget=0;pointerEvents=0;fillColor=none;top=0;left=0;bottom=0;right=0;points=[[0,0.5],[1,0.5]];portConstraint=eastwest;" parent="WIyWlLk6GJQsqaUBKTNV-1" vertex="1">
          <mxGeometry x="1120" y="490" width="210" height="30" as="geometry" />
        </mxCell>
        <mxCell id="aL4d4vG_SEdJMuqijJNs-147" value="" style="shape=table;html=1;whiteSpace=wrap;startSize=0;container=1;collapsible=0;childLayout=tableLayout;" parent="WIyWlLk6GJQsqaUBKTNV-1" vertex="1">
          <mxGeometry x="1105" y="450" width="240" height="42.5" as="geometry" />
        </mxCell>
        <mxCell id="aL4d4vG_SEdJMuqijJNs-148" value="" style="shape=partialRectangle;html=1;whiteSpace=wrap;collapsible=0;dropTarget=0;pointerEvents=0;fillColor=none;top=0;left=0;bottom=0;right=0;points=[[0,0.5],[1,0.5]];portConstraint=eastwest;" parent="aL4d4vG_SEdJMuqijJNs-147" vertex="1">
          <mxGeometry width="240" height="22" as="geometry" />
        </mxCell>
        <mxCell id="aL4d4vG_SEdJMuqijJNs-149" value="&lt;font face=&quot;roboto, robotodraft, helvetica, arial, sans-serif&quot;&gt;&lt;span style=&quot;font-size: 13px ; background-color: rgb(255 , 255 , 255)&quot;&gt;既存もしくは新規チャットルーム&lt;/span&gt;&lt;/font&gt;" style="shape=partialRectangle;html=1;whiteSpace=wrap;connectable=0;overflow=hidden;fillColor=#dae8fc;top=0;left=0;bottom=0;right=0;strokeColor=#6c8ebf;" parent="aL4d4vG_SEdJMuqijJNs-148" vertex="1">
          <mxGeometry width="240" height="22" as="geometry" />
        </mxCell>
        <mxCell id="aL4d4vG_SEdJMuqijJNs-152" style="shape=partialRectangle;html=1;whiteSpace=wrap;collapsible=0;dropTarget=0;pointerEvents=0;fillColor=none;top=0;left=0;bottom=0;right=0;points=[[0,0.5],[1,0.5]];portConstraint=eastwest;" parent="aL4d4vG_SEdJMuqijJNs-147" vertex="1">
          <mxGeometry y="22" width="240" height="21" as="geometry" />
        </mxCell>
        <mxCell id="aL4d4vG_SEdJMuqijJNs-153" value="メッセージを入力し送信ボタンを押す" style="shape=partialRectangle;html=1;whiteSpace=wrap;connectable=0;overflow=hidden;fillColor=none;top=0;left=0;bottom=0;right=0;" parent="aL4d4vG_SEdJMuqijJNs-152" vertex="1">
          <mxGeometry width="240" height="21" as="geometry" />
        </mxCell>
        <mxCell id="aL4d4vG_SEdJMuqijJNs-154" style="edgeStyle=none;orthogonalLoop=1;jettySize=auto;html=1;entryX=1;entryY=0.5;entryDx=0;entryDy=0;startArrow=blockThin;startFill=1;endArrow=none;endFill=0;exitX=0;exitY=0.5;exitDx=0;exitDy=0;curved=1;" parent="WIyWlLk6GJQsqaUBKTNV-1" source="aL4d4vG_SEdJMuqijJNs-148" target="aL4d4vG_SEdJMuqijJNs-140" edge="1">
          <mxGeometry relative="1" as="geometry">
            <mxPoint x="1060" y="520" as="sourcePoint" />
            <mxPoint x="1010" y="560" as="targetPoint" />
            <Array as="points" />
          </mxGeometry>
        </mxCell>
        <mxCell id="aL4d4vG_SEdJMuqijJNs-155" value="" style="shape=table;html=1;whiteSpace=wrap;startSize=0;container=1;collapsible=0;childLayout=tableLayout;fillColor=#fff2cc;strokeColor=#d6b656;" parent="WIyWlLk6GJQsqaUBKTNV-1" vertex="1">
          <mxGeometry x="1390" y="470" width="240" height="30" as="geometry" />
        </mxCell>
        <mxCell id="aL4d4vG_SEdJMuqijJNs-156" value="" style="shape=partialRectangle;html=1;whiteSpace=wrap;collapsible=0;dropTarget=0;pointerEvents=0;fillColor=none;top=0;left=0;bottom=0;right=0;points=[[0,0.5],[1,0.5]];portConstraint=eastwest;" parent="aL4d4vG_SEdJMuqijJNs-155" vertex="1">
          <mxGeometry width="240" height="30" as="geometry" />
        </mxCell>
        <mxCell id="aL4d4vG_SEdJMuqijJNs-157" value="&lt;font face=&quot;roboto, robotodraft, helvetica, arial, sans-serif&quot;&gt;&lt;span style=&quot;font-size: 13px ; background-color: rgb(255 , 242 , 204)&quot;&gt;投稿したメッセージと一覧が表示される&lt;/span&gt;&lt;/font&gt;" style="shape=partialRectangle;html=1;whiteSpace=wrap;connectable=0;overflow=hidden;fillColor=none;top=0;left=0;bottom=0;right=0;" parent="aL4d4vG_SEdJMuqijJNs-156" vertex="1">
          <mxGeometry width="240" height="30" as="geometry" />
        </mxCell>
        <mxCell id="aL4d4vG_SEdJMuqijJNs-158" style="edgeStyle=none;orthogonalLoop=1;jettySize=auto;html=1;entryX=1;entryY=0.5;entryDx=0;entryDy=0;startArrow=blockThin;startFill=1;endArrow=none;endFill=0;exitX=0;exitY=0.5;exitDx=0;exitDy=0;curved=1;" parent="WIyWlLk6GJQsqaUBKTNV-1" source="aL4d4vG_SEdJMuqijJNs-156" target="aL4d4vG_SEdJMuqijJNs-152" edge="1">
          <mxGeometry relative="1" as="geometry">
            <mxPoint x="1350" y="510" as="sourcePoint" />
            <mxPoint x="1295" y="559" as="targetPoint" />
            <Array as="points" />
          </mxGeometry>
        </mxCell>
        <mxCell id="9sWYosas5AgW0Uu0xi2V-2" style="edgeStyle=none;orthogonalLoop=1;jettySize=auto;html=1;startArrow=blockThin;startFill=1;endArrow=none;endFill=0;exitX=0;exitY=0.5;exitDx=0;exitDy=0;curved=1;" parent="WIyWlLk6GJQsqaUBKTNV-1" source="9sWYosas5AgW0Uu0xi2V-4" edge="1">
          <mxGeometry relative="1" as="geometry">
            <mxPoint x="940" y="770" as="sourcePoint" />
            <mxPoint x="920" y="780" as="targetPoint" />
          </mxGeometry>
        </mxCell>
        <mxCell id="9sWYosas5AgW0Uu0xi2V-3" value="" style="shape=table;html=1;whiteSpace=wrap;startSize=0;container=1;collapsible=0;childLayout=tableLayout;fillColor=#fff2cc;strokeColor=#d6b656;" parent="WIyWlLk6GJQsqaUBKTNV-1" vertex="1">
          <mxGeometry x="970" y="760" width="240" height="30" as="geometry" />
        </mxCell>
        <mxCell id="9sWYosas5AgW0Uu0xi2V-4" value="" style="shape=partialRectangle;html=1;whiteSpace=wrap;collapsible=0;dropTarget=0;pointerEvents=0;fillColor=none;top=0;left=0;bottom=0;right=0;points=[[0,0.5],[1,0.5]];portConstraint=eastwest;" parent="9sWYosas5AgW0Uu0xi2V-3" vertex="1">
          <mxGeometry width="240" height="30" as="geometry" />
        </mxCell>
        <mxCell id="9sWYosas5AgW0Uu0xi2V-5" value="" style="shape=partialRectangle;html=1;whiteSpace=wrap;connectable=0;overflow=hidden;fillColor=none;top=0;left=0;bottom=0;right=0;" parent="9sWYosas5AgW0Uu0xi2V-4" vertex="1">
          <mxGeometry width="240" height="30" as="geometry" />
        </mxCell>
        <mxCell id="BXik9HRzzpL5feZ0T-mL-3" value="参加済みプロジェクト一覧が表示される" style="text;html=1;resizable=0;autosize=1;align=center;verticalAlign=middle;points=[];fillColor=none;strokeColor=none;rounded=0;" parent="WIyWlLk6GJQsqaUBKTNV-1" vertex="1">
          <mxGeometry x="980" y="765" width="230" height="20" as="geometry" />
        </mxCell>
        <mxCell id="BXik9HRzzpL5feZ0T-mL-32" value="&lt;font color=&quot;#000000&quot;&gt;参加するボタンに切り替わる&lt;/font&gt;" style="text;html=1;align=center;verticalAlign=middle;resizable=0;points=[];autosize=1;fontColor=#C2C2C2;" parent="WIyWlLk6GJQsqaUBKTNV-1" vertex="1">
          <mxGeometry x="1120" y="529.5" width="170" height="20" as="geometry" />
        </mxCell>
        <mxCell id="BXik9HRzzpL5feZ0T-mL-29" style="edgeStyle=orthogonalEdgeStyle;orthogonalLoop=1;jettySize=auto;html=1;exitX=1;exitY=0.5;exitDx=0;exitDy=0;curved=1;entryX=0.037;entryY=1.121;entryDx=0;entryDy=0;entryPerimeter=0;" parent="WIyWlLk6GJQsqaUBKTNV-1" source="9sWYosas5AgW0Uu0xi2V-6" target="BrCqYyokKNF17bQJozhL-1" edge="1">
          <mxGeometry relative="1" as="geometry">
            <mxPoint x="1420" y="680" as="sourcePoint" />
            <mxPoint x="1400" y="620" as="targetPoint" />
            <Array as="points">
              <mxPoint x="1050" y="533" />
              <mxPoint x="1060" y="533" />
              <mxPoint x="1060" y="580" />
              <mxPoint x="1122" y="580" />
            </Array>
          </mxGeometry>
        </mxCell>
        <mxCell id="BrCqYyokKNF17bQJozhL-5" style="edgeStyle=orthogonalEdgeStyle;orthogonalLoop=1;jettySize=auto;html=1;curved=1;entryX=1;entryY=0.5;entryDx=0;entryDy=0;" edge="1" parent="WIyWlLk6GJQsqaUBKTNV-1" target="aL4d4vG_SEdJMuqijJNs-71">
          <mxGeometry relative="1" as="geometry">
            <mxPoint x="1120" y="540" as="sourcePoint" />
            <mxPoint x="1182.03" y="534.001" as="targetPoint" />
            <Array as="points">
              <mxPoint x="1090" y="540" />
              <mxPoint x="1090" y="463" />
            </Array>
          </mxGeometry>
        </mxCell>
      </root>
    </mxGraphModel>
  </diagram>
  <diagram id="z7xNui9jPLy8Wvwj1wwJ" name="ページ2">
    <mxGraphModel dx="870" dy="442" grid="1" gridSize="10" guides="1" tooltips="1" connect="1" arrows="1" fold="1" page="1" pageScale="1" pageWidth="850" pageHeight="1100" math="0" shadow="0">
      <root>
        <mxCell id="qXVrGBEwC9e_K_0EgQ49-0" />
        <mxCell id="qXVrGBEwC9e_K_0EgQ49-1" parent="qXVrGBEwC9e_K_0EgQ49-0" />
      </root>
    </mxGraphModel>
  </diagram>
</mxfile>
